<?xml version="1.0" encoding="UTF-8"?>
<svg id="Flat" xmlns="http://www.w3.org/2000/svg" version="1.1" viewBox="0 0 800 800">
  <!-- Generator: Adobe Illustrator 29.8.1, SVG Export Plug-In . SVG Version: 2.1.1 Build 2)  -->
  <defs>
    <style>
      .st0 {
        stroke: #000;
        stroke-miterlimit: 10;
        stroke-width: 18px;
      }
    </style>
  </defs>
  <path class="st0" d="M777.9,382.8L477.1,81.9l-28.4,29.4-5.9,6.7,5.4,5.3c76.4,75.9,210.9,209.6,253.6,252.3H39.3c-.4,0-.8,0-1.2,0v48.7c.6,0,1.2,0,1.7,0h0c1.1,0,2.4,0,4,0h11.4c9.9,0,24.4,0,42.3,0,35.9,0,85.7,0,141.8,0,162,0,394.8,0,462.4,0l-259.2,259.2,35.1,33.9,300.2-300.2s0,0,0,0c4.6-4.6,7.1-10.7,7.1-17.2s-2.5-12.6-7.1-17.2Z"/>
</svg>